#!OML:ASF I:\Actors\actors\Patient Classification 1\Patient 1\Session 1\Subject1.ASF
:FULLY-SPECIFIED
:DEGREES
1618
root -0.255172 17.5957 7.914 22.9201 -11.1003 -9.28969
lowerback 4.51549 2.04735 8.79556
upperback 2.72554 3.01698 3.99558
thorax 0.538791 1.56629 -0.894972
lowerneck -3.05541 -5.25526 -1.88369
upperneck 48.8656 -9.16936 1.5925
head 19.8148 -3.8497 -0.321832
rclavicle 1.31198e-014 1.82882e-014
rhumerus 48.385 56.7251 -30.7885
rradius 36.5019
rwrist 14.0244
rhand 8.32065 -30.7152
rfingers 7.12502
rthumb 33.5318 -57.6017
lclavicle 1.31198e-014 1.82882e-014
lhumerus 57.3907 -67.4426 27.359
lradius 46.9392
lwrist 17.4876
lhand -21.8837 -9.57802
lfingers 7.12502
lthumb 4.52111 20.3537
rfemur -24.2346 30.8414 13.2937
rtibia 1.19597
rfoot -5.68801 -23.9561
rtoes -2.636
lfemur -5.14367 33.2363 -8.21459
ltibia -13.3928
lfoot 2.81396 -5.83725
ltoes 51.5464
1619
root -0.254304 17.5964 7.90455 22.9509 -11.091 -9.27371
lowerback 4.62214 2.04079 8.80179
upperback 2.95402 3.00056 3.98542
thorax 0.717223 1.5688 -0.905939
lowerneck -2.74509 -5.23889 -1.91299
upperneck 47.9261 -9.04556 1.65665
head 19.0565 -3.82747 -0.232364
rclavicle -5.52621e-014 1.03368e-014
rhumerus 45.8407 55.6734 -33.8799
rradius 36.276
rwrist 17.3675
rhand 7.67038 -30.4848
rfingers 7.12502
rthumb 32.9136 -57.5032
lclavicle -5.52621e-014 1.03368e-014
lhumerus 58.1544 -67.1135 26.6457
lradius 47.009
lwrist 17.6881
lhand -21.5918 -9.47397
lfingers 7.12502
lthumb 4.80289 20.4516
rfemur -24.3354 30.8207 13.24
rtibia 1.24452
rfoot -5.68749 -23.9383
rtoes -2.36257
lfemur -5.27145 32.8406 -8.27353
ltibia -13.3714
lfoot 2.54279 -5.54445
ltoes 51.4808
1620
root -0.254722 17.5985 7.89185 22.9829 -11.0408 -9.23086
lowerback 4.80867 2.04218 8.8184
upperback 3.16623 3.00642 3.93028
thorax 0.83901 1.58083 -0.973548
lowerneck -2.36586 -5.25607 -2.02197
upperneck 46.8209 -9.06522 1.9975
head 18.2484 -3.84768 -0.0189438
rclavicle 4.33351e-014 3.73715e-014
rhumerus 43.664 54.3979 -36.4982
rradius 36.3251
rwrist 18.9128
rhand 8.03152 -29.442
rfingers 7.12502
rthumb 33.257 -56.3876
lclavicle 4.33351e-014 3.73715e-014
lhumerus 59.5387 -66.8444 25.1794
lradius 47.1024
lwrist 17.4603
lhand -21.399 -9.67588
lfingers 7.12502
lthumb 4.98908 20.2454
rfemur -24.465 30.7066 13.1749
rtibia 1.30708
rfoot -5.64706 -23.8774
rtoes -2.32191
lfemur -5.50181 32.3955 -8.41018
ltibia -13.2828
lfoot 2.24001 -5.26309
ltoes 51.2583
1621
root -0.254959 17.6004 7.87801 23.0223 -11.0024 -9.18451
lowerback 5.02367 1.95721 8.71418
upperback 3.4043 2.89441 3.96454
thorax 0.950625 1.53152 -0.87985
lowerneck -1.9899 -5.19791 -2.2564
upperneck 45.6045 -8.89556 2.22026
head 17.4048 -3.82689 0.181272
rclavicle -1.31198e-014 -7.95139e-015
rhumerus 49.7697 56.1742 -28.3437
rradius 37.8808
rwrist 14.192
rhand 7.53806 -30.6408
rfingers 7.12502
rthumb 32.7877 -57.6855
lclavicle -1.31198e-014 -7.95139e-015
lhumerus 60.1083 -66.3455 24.4517
lradius 47.3127
lwrist 17.1747
lhand -21.0242 -9.86371
lfingers 7.12502
lthumb 5.35102 20.0487
rfemur -24.6308 30.7104 13.0411
rtibia 1.37199
rfoot -5.66173 -23.9378
rtoes -2.30619
lfemur -5.70524 31.9633 -8.52145
ltibia -13.2276
lfoot 1.94968 -4.95405
ltoes 51.1086
1622
root -0.255155 17.6008 7.86422 23.0745 -10.9895 -9.1735
lowerback 5.24071 1.91557 8.65388
upperback 3.65949 2.83981 3.96701
thorax 1.08828 1.51267 -0.843826
lowerneck -1.54384 -5.17788 -2.43167
upperneck 44.1944 -8.80633 2.50289
head 16.4829 -3.82257 0.382609
rclavicle 1.31198e-014 5.08889e-014
rhumerus 52.01 56.4095 -25.0415
rradius 39.1522
rwrist 12.4038
rhand 7.42794 -31.3175
rfingers 7.12502
rthumb 32.6829 -58.3841
lclavicle 1.31198e-014 5.08889e-014
lhumerus 60.7771 -65.7686 23.639
lradius 47.6613
lwrist 16.9645
lhand -20.4302 -9.81399
lfingers 7.12502
lthumb 5.92447 20.0832
rfemur -24.8115 30.8905 12.8783
rtibia 1.4114
rfoot -5.72285 -24.1471
rtoes -2.13378
lfemur -5.82281 31.5768 -8.52608
ltibia -13.258
lfoot 1.7104 -4.61437
ltoes 51.2266
1623
root -0.255144 17.6012 7.8496 23.1526 -10.9864 -9.2162
lowerback 5.47616 1.91111 8.66059
upperback 3.91548 2.83891 3.94189
thorax 1.22638 1.52187 -0.875132
lowerneck -0.973572 -5.19238 -2.49837
upperneck 42.6061 -8.77261 2.78189
head 15.4862 -3.82723 0.552752
rclavicle -1.59028e-015 -1.98785e-014
rhumerus 52.117 56.0151 -24.3506
rradius 40.3762
rwrist 11.4633
rhand 7.83126 -31.5845
rfingers 7.12502
rthumb 33.0666 -58.5707
lclavicle -1.59028e-015 -1.98785e-014
lhumerus 61.5341 -65.1592 22.7431
lradius 48.0609
lwrist 16.5538
lhand -19.648 -9.69865
lfingers 7.12502
lthumb 6.67959 20.176
rfemur -24.9988 31.0933 12.7639
rtibia 1.40342
rfoot -5.71577 -24.3499
rtoes -2.11366
lfemur -5.94592 31.2253 -8.47094
ltibia -13.2879
lfoot 1.48468 -4.3052
ltoes 51.3367
1624
root -0.253652 17.6015 7.8337 23.2344 -10.9678 -9.31032
lowerback 5.78615 1.89716 8.74642
upperback 4.19191 2.83545 3.91607
thorax 1.34931 1.53118 -0.952659
lowerneck -0.422534 -5.18553 -2.63829
upperneck 40.9381 -8.75231 3.21894
head 14.5306 -3.83038 0.790704
rclavicle 3.77691e-014 3.10104e-014
rhumerus 52.287 55.5708 -23.524
rradius 41.7799
rwrist 10.3257
rhand 8.29787 -31.6942
rfingers 7.12502
rthumb 33.5102 -58.5853
lclavicle 3.77691e-014 3.10104e-014
lhumerus 62.3408 -64.4377 21.7217
lradius 48.507
lwrist 16.2349
lhand -18.8385 -10.0886
lfingers 7.12502
lthumb 7.46102 19.7598
rfemur -25.1439 31.1732 12.7731
rtibia 1.37408
rfoot -5.659 -24.421
rtoes -2.22741
lfemur -6.06448 30.8813 -8.35967
ltibia -13.3042
lfoot 1.26565 -3.99165
ltoes 51.3977
1625
root -0.252382 17.6014 7.81463 23.3234 -10.9087 -9.3758
lowerback 6.1709 1.85572 8.8104
upperback 4.46445 2.80423 3.90294
thorax 1.4229 1.52449 -1.00729
lowerneck 0.239496 -5.15263 -2.92837
upperneck 39.0456 -8.72681 3.85424
head 13.521 -3.83595 1.12744
rclavicle 1.59028e-015 -1.59028e-014
rhumerus 52.6376 55.2225 -22.275
rradius 43.235
rwrist 10.1835
rhand 8.06978 -31.5572
rfingers 7.12502
rthumb 33.2934 -58.4951
lclavicle 1.59028e-015 -1.59028e-014
lhumerus 62.8765 -63.6183 20.9119
lradius 49.0169
lwrist 16.0111
lhand -18.1166 -10.8034
lfingers 7.12502
lthumb 8.15784 19.0192
rfemur -25.3397 31.2487 12.7314
rtibia 1.39065
rfoot -5.68919 -24.5497
rtoes -2.00845
lfemur -6.22441 30.4933 -8.28323
ltibia -13.3389
lfoot 1.07836 -3.63414
ltoes 51.5628
1626
root -0.252072 17.6014 7.79515 23.449 -10.8689 -9.37818
lowerback 6.5491 1.83463 8.79271
upperback 4.72649 2.79659 3.88483
thorax 1.48697 1.52736 -1.02317
lowerneck 1.0544 -5.16402 -3.046
upperneck 36.9234 -8.66094 4.18338
head 12.4092 -3.83857 1.30961
rclavicle -4.57205e-014 -4.29375e-014
rhumerus 52.8664 54.7932 -21.0228
rradius 44.7399
rwrist 10.3486
rhand 8.25864 -31.0588
rfingers 7.12502
rthumb 33.4729 -57.9581
lclavicle -4.57205e-014 -4.29375e-014
lhumerus 63.1376 -62.7489 20.3987
lradius 49.7165
lwrist 15.7989
lhand -17.3811 -10.8833
lfingers 7.12502
lthumb 8.86755 18.9104
rfemur -25.6436 31.4197 12.5131
rtibia 1.42483
rfoot -5.80554 -24.7726
rtoes -1.35919
lfemur -6.40917 30.1056 -8.27672
ltibia -13.4285
lfoot 0.942313 -3.26206
ltoes 51.8565
1627
root -0.252626 17.6009 7.77578 23.6125 -10.8438 -9.38934
lowerback 6.93778 1.82396 8.7451
upperback 5.00444 2.80061 3.87005
thorax 1.56157 1.53576 -1.01952
lowerneck 1.72476 -5.20099 -3.18385
upperneck 34.8865 -8.64983 4.54851
head 11.4339 -3.85974 1.49189
rclavicle -1.23246e-014 -1.59028e-014
rhumerus 52.9268 54.2004 -19.9821
rradius 46.3993
rwrist 9.9039
rhand 9.10731 -30.4558
rfingers 7.12502
rthumb 34.2792 -57.1771
lclavicle -1.23246e-014 -1.59028e-014
lhumerus 63.0863 -61.7351 20.2249
lradius 50.6481
lwrist 16.1231
lhand -16.0343 -10.6236
lfingers 7.12502
lthumb 10.1671 19.1107
rfemur -25.9834 31.5958 12.2762
rtibia 1.43765
rfoot -5.83637 -24.959
rtoes -0.682332
lfemur -6.64515 29.7437 -8.27847
ltibia -13.4799
lfoot 0.775628 -2.92724
ltoes 51.9483
1628
root -0.255011 17.6002 7.75322 23.8016 -10.7444 -9.4318
lowerback 7.41396 1.78526 8.70315
upperback 5.23678 2.782 3.86296
thorax 1.53833 1.5286 -1.01501
lowerneck 2.38343 -5.19917 -3.63571
upperneck 32.9489 -8.73188 5.47718
head 10.5993 -3.90639 1.91851
rclavicle -1.47101e-014 -3.57812e-014
rhumerus 52.6662 53.5957 -19.3678
rradius 48.0808
rwrist 9.19901
rhand 9.41023 -30.4787
rfingers 7.12502
rthumb 34.5667 -57.1348
lclavicle -1.47101e-014 -3.57812e-014
lhumerus 62.6299 -60.7077 20.406
lradius 51.7651
lwrist 16.9592
lhand -14.1261 -10.3904
lfingers 7.12502
lthumb 12.0075 19.2452
rfemur -26.3515 31.8089 12.0564
rtibia 1.43977
rfoot -5.80796 -25.2863
rtoes -0.371723
lfemur -7.01635 29.333 -8.28533
ltibia -13.431
lfoot 0.523024 -2.61548
ltoes 51.8355
1629
root -0.258406 17.5999 7.73097 24.0028 -10.6098 -9.46637
lowerback 7.9081 1.73842 8.66437
upperback 5.43744 2.75751 3.83961
thorax 1.47307 1.51683 -1.03024
lowerneck 3.12262 -5.15212 -4.18069
upperneck 30.9963 -8.79963 6.6534
head 9.79497 -3.94197 2.43994
rclavicle -4.37326e-014 -1.70955e-014
rhumerus 52.2694 53.0059 -18.955
rradius 49.6747
rwrist 8.36077
rhand 9.31667 -30.9145
rfingers 7.12502
rthumb 34.4779 -57.5909
lclavicle -4.37326e-014 -1.70955e-014
lhumerus 62.1089 -59.8304 20.5279
lradius 52.9453
lwrist 17.5215
lhand -13.0035 -10.0545
lfingers 7.12502
lthumb 13.0898 19.5147
rfemur -26.7277 32.154 11.7532
rtibia 1.36866
rfoot -5.86603 -25.8191
rtoes -0.192779
lfemur -7.41191 28.8947 -8.28306
ltibia -13.3838
lfoot 0.295297 -2.28739
ltoes 51.9472
1630
root -0.261342 17.5993 7.71189 24.2088 -10.4982 -9.48235
lowerback 8.3453 1.7026 8.61937
upperback 5.67591 2.73653 3.80905
thorax 1.48023 1.50984 -1.04584
lowerneck 3.83396 -5.14528 -4.39888
upperneck 29.0391 -8.78425 7.29879
head 8.97996 -3.95504 2.71175
rclavicle 1.63003e-014 2.14687e-014
rhumerus 51.9911 52.3428 -18.3728
rradius 51.2568
rwrist 7.47438
rhand 9.33269 -31.3437
rfingers 7.12502
rthumb 34.4931 -58.0166
lclavicle 1.63003e-014 2.14687e-014
lhumerus 61.6723 -58.9761 20.5407
lradius 54.077
lwrist 17.8503
lhand -12.7191 -9.82315
lfingers 7.12502
lthumb 13.364 19.7283
rfemur -27.074 32.4899 11.4278
rtibia 1.24288
rfoot -5.88184 -26.3102
rtoes -0.140781
lfemur -7.7453 28.4722 -8.26802
ltibia -13.3935
lfoot 0.128204 -1.93172
ltoes 52.1315
